<svg width="240" height="240" viewBox="0 0 240 240" fill="none" xmlns="http://www.w3.org/2000/svg">
<path d="M152.64 31.36C138.96 28.32 124.8 26.88 110.96 27.76C98.64 28.56 84.72 30.8 74.8 38.88C70.08 42.72 64.48 49.6 62.88 55.68C62.88 55.68 54.8 87.76 38.56 94.56C22.32 101.44 11.04 218.64 134.16 207.2C134.16 207.2 206.48 204.24 210.8 117.84C211.84 96.96 211.28 74 198.64 56.56C188.96 43.2 175.44 37.28 159.92 33.12C157.6 32.56 155.12 31.92 152.64 31.36Z" fill="#F4F7FA"/>
<path d="M115.12 187.04C108.8 191.44 101.6 191.92 94.56 190.8C93.76 190.64 93.04 190.56 92.24 190.4C88.96 189.68 85.68 188.72 82.56 187.6C73.84 184.64 63.68 180 64.08 168.96C64.24 163.68 69.44 162.16 70 157.6C70.72 151.92 61.84 147.76 57.92 145.44C51.76 141.92 46.56 139.36 47.2 130.96C47.6 124.96 51.84 121.28 54.8 116.56C58.96 110 55.76 104.4 53.28 98C50.16 89.92 55.76 80.8 62.4 76.4799C63.2 75.9999 64.08 75.4399 65.04 74.9599C70.48 72.1599 78.48 69.9199 83.04 74.1599C92 82.3999 80.64 93.92 78.64 102.08C76.72 109.76 82.48 115.04 88.08 119.36C102.16 130.16 121.12 138.16 124.48 157.6C126.32 168.16 124.4 180.56 115.12 187.04Z" fill="url(#paint0_linear)"/>
<path opacity="0.3" d="M115.12 187.04C108.8 191.44 101.6 191.92 94.56 190.8C98.8 186.88 110.88 173.6 99.04 157.28C94.8 151.44 88.64 148 81.84 145.84C77.76 144.56 72.88 142.72 70.96 138.48C68.8 133.68 71.2 128.24 72.32 123.52C73.52 118.24 74.08 112.8 71.36 107.92C66.56 99.1199 59.92 84.4799 64.96 74.9599C70.4 72.1599 78.4 69.9199 82.96 74.1599C91.92 82.3999 80.56 93.92 78.56 102.08C76.64 109.76 82.4 115.04 88 119.36C102.08 130.16 121.04 138.16 124.4 157.6C126.32 168.16 124.4 180.56 115.12 187.04Z" fill="url(#paint1_linear)"/>
<path d="M93.36 188.8C92.08 189.76 90.48 190.64 88.72 191.44C87.76 191.84 86.8 192.24 85.84 192.48C84.56 192.88 83.28 193.2 82.16 193.28C76.24 194 53.6 195.76 59.36 183.92C59.92 182.8 61.52 181.28 61.2 179.92C60.72 177.52 55.6 176.56 53.68 176C36.88 171.44 55.68 155.68 47.84 150.32C40 144.96 35.76 137.36 39.76 124.96C42 118.08 49.28 115.84 54.48 116.72C58.56 117.44 61.36 120.24 59.2 124.24C54.32 133.28 59.52 139.36 65.28 147.12C71.04 154.88 94.72 155.12 98.72 172.8C100.16 178.64 98.08 185.28 93.36 188.8Z" fill="url(#paint2_linear)"/>
<path opacity="0.3" d="M93.36 188.8C92.08 189.76 90.48 190.64 88.72 191.44C91.36 183.76 88.64 179.68 75.44 176.64C60.8 173.36 61.04 166.56 61.6 156.72C62.08 146.88 51.76 149.44 47.2 135.04C44.16 125.36 50.24 119.52 54.56 116.72C58.64 117.44 61.44 120.24 59.28 124.24C54.4 133.28 59.6 139.36 65.36 147.12C71.12 154.88 94.8 155.12 98.8 172.8C100.16 178.64 98.08 185.28 93.36 188.8Z" fill="url(#paint3_linear)"/>
<path d="M161.12 86.0799C158.08 86.7999 153.92 87.7599 153.04 86.3199C152.08 84.7199 155.36 81.3599 154.64 80.7199C154.08 80.2399 152.24 82.4799 149.76 82.1599C148.48 81.9199 146.88 80.9599 146.72 79.6799C146.4 77.7599 149.36 76.7199 149.04 74.6399C148.88 73.6799 148.08 72.6399 147.12 72.3999C145.04 71.9999 144.16 76.0799 140.88 76.7199C138.8 77.1199 136.4 76.1599 135.12 74.5599C132.96 71.9199 134.8 68.5599 133.12 67.5199C131.76 66.6399 130.08 68.5599 127.12 69.1999C122.56 70.2399 117.12 67.9199 114.16 64.4799C110.08 59.7599 109.92 52.3199 112.8 47.7599C119.28 37.5199 142.8 39.1199 148.8 48.3199C150.72 51.2799 153.36 58.9599 154.64 65.7599C154.96 67.6799 155.36 70.1599 157.36 71.7599C159.92 73.8399 162.4 72.2399 165.76 74.2399C168.48 75.8399 171.04 79.3599 170.24 81.9199C169.52 84.0799 166.48 84.7999 161.12 86.0799Z" fill="url(#paint4_linear)"/>
<path d="M128.32 97.6799C128.4 98.2399 120 107.84 118.64 112.4L134.72 117.28C134.72 117.28 144.72 110 147.84 110L128.32 97.6799Z" fill="url(#paint5_linear)"/>
<path d="M128.4 96.3199C128.08 96.3199 125.04 101.2 124.8 102.4C124.8 102.4 138.08 109.12 140.72 113.28L150.24 109.36C150.24 109.36 134.4 96.1599 128.4 96.3199Z" fill="url(#paint6_linear)"/>
<path d="M117.36 114.4C117.36 114.4 119.76 108.48 121.28 107.52C122.8 106.56 131.52 109.68 137.04 115.84L134.4 118L117.36 114.4Z" fill="url(#paint7_linear)"/>
<path d="M96.72 66.7999C96.72 66.7999 92.8 65.6799 90.4 66.2399C88.08 66.7999 88.88 69.7599 89.36 70.6399C89.76 71.5199 95.52 69.5999 95.52 69.5999L96.72 66.7999Z" fill="url(#paint8_linear)"/>
<path d="M184.64 97.52C184.48 95.68 184.56 94.24 184.64 93.2C184.8 91.68 185.12 91.04 185.6 90.88C186 90.72 186.4 90.88 186.48 90.96C187.84 91.52 188.16 93.84 188.08 95.36C187.92 97.12 187.04 98.4 186.48 99.04C185.92 98.48 185.28 98 184.64 97.52Z" fill="url(#paint9_linear)"/>
<path d="M96.24 65.36C95.52 67.2 94.8 68.96 94.16 70.8C96.64 72.64 100.48 74.8 105.36 75.44C110.48 76.08 112 74.32 116 75.68C120.4 77.12 120.08 79.68 126 83.04C130.72 85.68 133.28 85.36 133.52 86.96C133.84 89.04 129.6 90.48 123.92 97.12C121.76 99.6 121.44 100.48 121.68 101.12C122.4 103.28 127.84 101.04 133.52 103.44C141.12 106.64 142.8 115.44 146.48 114.72C147.2 114.56 147.44 114.16 149.92 111.28C152.24 108.64 154.24 106.48 155.6 105.12C157.52 106 159.92 107.36 162.4 109.44C167.68 114 168.24 117.76 173.28 120.16C174.88 120.88 177.44 122.08 179.76 121.12C181.2 120.48 182.56 119.04 184.96 110.08C186.08 105.84 186.8 102.24 187.28 99.6C186.08 98.72 184.88 97.84 183.68 96.96C182.24 98.56 180.32 101.04 179.12 104.56C177.84 108.32 178.32 110.56 176.96 111.12C175.36 111.84 173.2 108.96 168 104C160.96 97.28 159.6 97.52 155.12 92.4C150.96 87.68 151.12 86.4 148.4 83.2C146.8 81.36 141.92 76.16 118.96 70.08C113.52 68.64 105.76 66.8 96.24 65.36Z" fill="url(#paint10_linear)"/>
<path opacity="0.3" d="M132.96 97.5999C132.32 93.1999 143.92 89.6799 143.2 85.9999C142.8 83.9999 139.36 83.9999 133.6 81.8399C123.12 77.9199 124.16 74.0799 116.48 71.9999C108.24 69.7599 104.24 73.5199 98.24 69.8399C97.12 69.1199 96.16 68.3199 95.36 67.5199C94.96 68.5599 94.56 69.6799 94.08 70.7199C96.56 72.5599 100.4 74.7199 105.28 75.3599C110.4 75.9999 111.92 74.2399 115.92 75.5999C120.32 77.0399 120 79.5999 125.92 82.9599C130.64 85.5999 133.2 85.2799 133.44 86.8799C133.76 88.9599 129.52 90.3999 123.84 97.0399C121.68 99.5199 121.36 100.4 121.6 101.04C122.32 103.2 127.76 100.96 133.44 103.36C141.04 106.56 142.72 115.36 146.4 114.64C146.48 114.64 146.56 114.64 146.56 114.56C146.48 111.6 145.76 108.32 143.68 105.6C139.76 100.48 133.44 100.8 132.96 97.5999Z" fill="url(#paint11_linear)"/>
<path opacity="0.3" d="M178.24 119.2C175.2 119.12 174.32 115.12 167.52 109.36C164.8 107.04 158.96 102.08 156.08 103.92C155.84 104.08 155.12 104.56 154.72 106C155.04 105.68 155.28 105.36 155.6 105.12C157.52 106 159.92 107.36 162.4 109.44C167.68 114 168.24 117.76 173.28 120.16C174.88 120.88 177.44 122.08 179.76 121.12C180.72 120.72 181.68 119.92 183.04 116.48C181.04 118.64 179.44 119.2 178.24 119.2Z" fill="url(#paint12_linear)"/>
<path d="M160 84.6399C160 84.6399 154.16 89.0399 150.24 85.5199C150.24 85.5199 148.88 91.9999 157.28 96.3199C157.28 96.3199 154.16 93.4399 161.04 89.0399L160 84.6399Z" fill="url(#paint13_linear)"/>
<path d="M167.44 81.12C167.44 81.12 167.28 87.44 164.8 90.56C164.48 90.96 163.84 91.2 163.36 91.04C162 90.64 159.44 89.36 158.88 85.92C158.88 85.92 157.52 84.08 157.76 83.28C157.92 82.48 159.36 82.8 159.84 83.76C160.32 84.8 160.96 82.96 160.72 82.64C160.48 82.32 162.32 78.64 167.44 81.12Z" fill="url(#paint14_linear)"/>
<path d="M118.48 113.68C107.04 118.08 105.6 121.84 105.28 123.28C105.2 123.52 104.96 125.12 104.72 127.04C104.32 130.88 104.48 131.68 104.08 132.96C103.28 135.28 101.6 135.92 99.52 137.68C93.6 142.8 95.44 147.92 90.08 151.68C87.52 153.44 85.44 153.52 83.76 154C78.48 155.44 72.16 162.4 67.76 186.64C68.88 187.84 69.92 189.12 71.04 190.32C76.64 177.76 83.52 170.24 88.72 165.76C99.2 156.64 107.44 155.6 117.52 145.28C124.32 138.32 128.16 131.04 130.24 126.16C126.32 122.08 122.4 117.84 118.48 113.68Z" fill="url(#paint15_linear)"/>
<path opacity="0.3" d="M122.72 118.24C114.72 119.36 111.92 122.08 110.88 124.32C109.28 127.84 111.76 130.4 111.12 137.52C110.96 138.88 110.32 145.52 106.64 150.24C101.12 157.2 92.96 154.8 86.32 158.64C81.84 161.2 77.2 167.12 75.68 181.36C80.16 174 84.88 169.04 88.64 165.76C99.12 156.64 107.36 155.6 117.44 145.28C124.24 138.32 128.08 131.04 130.16 126.16C127.76 123.52 125.2 120.88 122.72 118.24Z" fill="url(#paint16_linear)"/>
<path d="M116.32 114.56C112.8 116.4 109.44 120.48 109.76 124.88C110 128.96 113.36 132.24 116.56 133.76C122.08 136.4 125.68 132.8 137.12 132.72C143.76 132.72 149.76 133.84 149.84 135.2C149.92 136.48 144.56 136.4 141.36 140.64C140.16 142.24 139.76 143.76 138.88 150C138.4 153.36 137.84 157.6 137.28 162.48C138 163.28 138.72 164.08 139.36 164.8C145.76 157.6 155.36 146.08 162.32 134.48C163.36 132.8 164.72 130.4 164 128C162.64 123.28 155.12 123.44 140 119.12C125.44 115.12 121.52 111.92 116.32 114.56Z" fill="url(#paint17_linear)"/>
<path d="M147.84 128.24L152.4 125.68C138 120.48 121.76 118.72 112 118.16C110.8 119.68 110 121.44 109.76 123.28C128.8 122.96 147.84 128.24 147.84 128.24Z" fill="url(#paint18_linear)"/>
<path d="M144.56 130.32L146.64 129.28C131.68 125.12 116.24 125.6 109.92 126.08C110.48 128.56 112.16 130.72 114.08 132.24C126.24 128.4 144.56 130.32 144.56 130.32Z" fill="url(#paint19_linear)"/>
<path d="M67.2 184.08C67.2 184.08 65.52 185.12 64.88 185.12C64.24 185.12 61.84 184.64 62.16 186.88C62.48 189.12 64.32 198.56 65.28 200.88C66.24 203.2 66.96 203.84 69.36 203.44C70.4 203.28 68.72 200.72 68.96 199.36C69.2 198 72.16 189.36 72.16 189.36C72.16 189.36 69.68 186.56 69.44 185.68C69.28 184.8 68.72 183.04 67.2 184.08Z" fill="url(#paint20_linear)"/>
<path d="M66.24 196.8V189.52C66.24 188.32 66 187.12 65.44 186.08L64.96 185.12C64.96 185.12 64.96 185.12 64.88 185.12C64.24 185.12 60.96 183.76 61.6 187.12C62.08 189.36 64.08 199.2 65.04 201.52C66 203.84 67.28 204.08 69.68 203.68C70.08 203.6 69.76 202.96 69.52 202.24L68.24 201.2C66.96 200.08 66.24 198.48 66.24 196.8Z" fill="#B2B8C1"/>
<path d="M135.52 160.32C135.52 160.32 133.92 161.28 133.36 161.28C132.72 161.28 130.56 160.88 130.8 162.96C131.04 165.04 132.8 173.92 133.76 176.08C134.64 178.24 135.28 178.88 137.6 178.48C138.56 178.32 136.96 176 137.2 174.64C137.44 173.36 140.16 165.2 140.16 165.2C140.16 165.2 137.84 162.56 137.6 161.76C137.36 160.96 136.96 159.36 135.52 160.32Z" fill="url(#paint21_linear)"/>
<path d="M134.64 172.24V165.44C134.64 164.32 134.4 163.2 133.92 162.24L133.44 161.28C133.44 161.28 133.44 161.28 133.36 161.28C132.72 161.28 129.68 160.08 130.32 163.2C130.72 165.28 132.64 174.56 133.6 176.64C134.48 178.8 135.68 179.04 137.92 178.64C138.32 178.56 138 177.92 137.76 177.36L136.56 176.4C135.36 175.36 134.64 173.84 134.64 172.24Z" fill="#B2B8C1"/>
<defs>
<linearGradient id="paint0_linear" x1="129.298" y1="45.9057" x2="16.3677" y2="282.893" gradientUnits="userSpaceOnUse">
<stop stop-color="#FFC444"/>
<stop offset="0.9964" stop-color="#F36F56"/>
</linearGradient>
<linearGradient id="paint1_linear" x1="131.088" y1="48.095" x2="21.1841" y2="278.731" gradientUnits="userSpaceOnUse">
<stop stop-color="#FFC444"/>
<stop offset="0.9964" stop-color="#F36F56"/>
</linearGradient>
<linearGradient id="paint2_linear" x1="83.053" y1="90.9723" x2="43.0586" y2="269.648" gradientUnits="userSpaceOnUse">
<stop stop-color="#FF9085"/>
<stop offset="1" stop-color="#FB6FBB"/>
</linearGradient>
<linearGradient id="paint3_linear" x1="85.9648" y1="94.6617" x2="49.7465" y2="256.468" gradientUnits="userSpaceOnUse">
<stop stop-color="#FF9085"/>
<stop offset="1" stop-color="#FB6FBB"/>
</linearGradient>
<linearGradient id="paint4_linear" x1="111.421" y1="15.2709" x2="168.406" y2="120.525" gradientUnits="userSpaceOnUse">
<stop stop-color="#444B8C"/>
<stop offset="0.9964" stop-color="#26264F"/>
</linearGradient>
<linearGradient id="paint5_linear" x1="125.316" y1="99.4807" x2="148.554" y2="133.892" gradientUnits="userSpaceOnUse">
<stop stop-color="#FFC444"/>
<stop offset="0.9964" stop-color="#F36F56"/>
</linearGradient>
<linearGradient id="paint6_linear" x1="137.284" y1="85.4757" x2="137.582" y2="107.076" gradientUnits="userSpaceOnUse">
<stop stop-color="#311944"/>
<stop offset="1" stop-color="#A03976"/>
</linearGradient>
<linearGradient id="paint7_linear" x1="117.349" y1="112.701" x2="137.01" y2="112.701" gradientUnits="userSpaceOnUse">
<stop stop-color="#311944"/>
<stop offset="1" stop-color="#A03976"/>
</linearGradient>
<linearGradient id="paint8_linear" x1="92.66" y1="72.672" x2="91.3193" y2="125.406" gradientUnits="userSpaceOnUse">
<stop stop-color="#FFC444"/>
<stop offset="0.9964" stop-color="#F36F56"/>
</linearGradient>
<linearGradient id="paint9_linear" x1="186.815" y1="75.0292" x2="185.472" y2="127.844" gradientUnits="userSpaceOnUse">
<stop stop-color="#FFC444"/>
<stop offset="0.9964" stop-color="#F36F56"/>
</linearGradient>
<linearGradient id="paint10_linear" x1="94.1374" y1="93.3549" x2="187.311" y2="93.3549" gradientUnits="userSpaceOnUse">
<stop offset="0.00359712" stop-color="#E38DDD"/>
<stop offset="1" stop-color="#9571F6"/>
</linearGradient>
<linearGradient id="paint11_linear" x1="94.1374" y1="91.1593" x2="146.61" y2="91.1593" gradientUnits="userSpaceOnUse">
<stop offset="0.00359712" stop-color="#E38DDD"/>
<stop offset="1" stop-color="#9571F6"/>
</linearGradient>
<linearGradient id="paint12_linear" x1="154.718" y1="112.441" x2="182.999" y2="112.441" gradientUnits="userSpaceOnUse">
<stop offset="0.00359712" stop-color="#E38DDD"/>
<stop offset="1" stop-color="#9571F6"/>
</linearGradient>
<linearGradient id="paint13_linear" x1="150.197" y1="90.4855" x2="161.085" y2="90.4855" gradientUnits="userSpaceOnUse">
<stop stop-color="#FFC444"/>
<stop offset="0.9964" stop-color="#F36F56"/>
</linearGradient>
<linearGradient id="paint14_linear" x1="168.222" y1="96.2896" x2="150.57" y2="52.7172" gradientUnits="userSpaceOnUse">
<stop stop-color="#FFC444"/>
<stop offset="0.9964" stop-color="#F36F56"/>
</linearGradient>
<linearGradient id="paint15_linear" x1="67.7617" y1="152.022" x2="130.216" y2="152.022" gradientUnits="userSpaceOnUse">
<stop offset="0.00359712" stop-color="#E38DDD"/>
<stop offset="1" stop-color="#9571F6"/>
</linearGradient>
<linearGradient id="paint16_linear" x1="75.6871" y1="149.799" x2="130.216" y2="149.799" gradientUnits="userSpaceOnUse">
<stop offset="0.00359712" stop-color="#E38DDD"/>
<stop offset="1" stop-color="#9571F6"/>
</linearGradient>
<linearGradient id="paint17_linear" x1="109.693" y1="139.289" x2="164.184" y2="139.289" gradientUnits="userSpaceOnUse">
<stop offset="0.00359712" stop-color="#E38DDD"/>
<stop offset="1" stop-color="#9571F6"/>
</linearGradient>
<linearGradient id="paint18_linear" x1="112.31" y1="152.034" x2="130.037" y2="125.221" gradientUnits="userSpaceOnUse">
<stop offset="0.494" stop-color="#EBEFF2"/>
<stop offset="1" stop-color="white"/>
</linearGradient>
<linearGradient id="paint19_linear" x1="112.229" y1="151.981" x2="129.956" y2="125.167" gradientUnits="userSpaceOnUse">
<stop offset="0.494" stop-color="#EBEFF2"/>
<stop offset="1" stop-color="white"/>
</linearGradient>
<linearGradient id="paint20_linear" x1="62.1358" y1="193.651" x2="72.1901" y2="193.651" gradientUnits="userSpaceOnUse">
<stop stop-color="#311944"/>
<stop offset="1" stop-color="#A03976"/>
</linearGradient>
<linearGradient id="paint21_linear" x1="130.787" y1="169.319" x2="140.213" y2="169.319" gradientUnits="userSpaceOnUse">
<stop stop-color="#311944"/>
<stop offset="1" stop-color="#A03976"/>
</linearGradient>
</defs>
</svg>
