<svg width="386" height="386" viewBox="0 0 386 386" fill="none" xmlns="http://www.w3.org/2000/svg">
<path d="M386 0H0V386H386V0Z" fill="white"/>
<path d="M245.496 50.4374C223.494 45.548 200.72 43.232 178.461 44.6474C158.646 45.934 136.258 49.5367 120.303 62.532C112.712 68.708 103.705 79.7734 101.132 89.552C101.132 89.552 88.1367 141.147 62.0174 152.084C35.898 163.149 17.756 351.646 215.774 333.247C215.774 333.247 332.089 328.486 339.037 189.526C340.709 155.944 339.809 119.017 319.479 90.9674C303.911 69.48 282.166 59.9587 257.205 53.268C253.473 52.3674 249.485 51.338 245.496 50.4374Z" fill="#F4F7FA"/>
<path d="M185.151 300.823C174.987 307.899 163.407 308.671 152.084 306.87C150.797 306.613 149.639 306.484 148.353 306.227C143.077 305.069 137.802 303.525 132.784 301.723C118.759 296.963 102.419 289.5 103.062 271.744C103.319 263.252 111.683 260.807 112.583 253.473C113.741 244.338 99.4593 237.647 93.1547 233.916C83.2473 228.255 74.884 224.137 75.9133 210.627C76.5567 200.977 83.376 195.059 88.1367 187.467C94.8273 176.917 89.6807 167.91 85.692 157.617C80.674 144.621 89.6807 129.953 100.36 123.005C101.647 122.233 103.062 121.333 104.606 120.561C113.355 116.057 126.222 112.455 133.556 119.274C147.967 132.527 129.696 151.055 126.479 164.179C123.391 176.531 132.655 185.023 141.662 191.971C164.307 209.341 194.801 222.207 200.205 253.473C203.165 270.457 200.077 290.401 185.151 300.823Z" fill="url(#paint0_linear)"/>
<path opacity="0.3" d="M185.151 300.823C174.987 307.899 163.407 308.671 152.084 306.87C158.903 300.565 178.332 279.207 159.289 252.959C152.47 243.566 142.563 238.033 131.626 234.559C125.064 232.501 117.215 229.541 114.127 222.722C110.653 215.002 114.513 206.253 116.315 198.661C118.245 190.169 119.145 181.42 114.771 173.571C107.051 159.418 96.3714 135.872 104.477 120.561C113.227 116.057 126.093 112.455 133.427 119.274C147.838 132.527 129.567 151.055 126.351 164.179C123.263 176.531 132.527 185.023 141.533 191.971C164.179 209.341 194.673 222.207 200.077 253.473C203.165 270.457 200.077 290.401 185.151 300.823Z" fill="url(#paint1_linear)"/>
<path d="M150.154 303.653C148.095 305.197 145.522 306.613 142.691 307.899C141.147 308.543 139.603 309.186 138.059 309.572C136.001 310.215 133.942 310.73 132.141 310.859C122.619 312.017 86.2067 314.847 95.4707 295.805C96.3714 294.003 98.9447 291.559 98.43 289.371C97.658 285.511 89.4234 283.967 86.3354 283.067C59.3154 275.733 89.552 250.385 76.9427 241.765C64.3334 233.144 57.5141 220.921 63.9474 200.977C67.5501 189.912 79.2587 186.309 87.622 187.725C94.184 188.883 98.6874 193.386 95.2134 199.819C87.3647 214.359 95.728 224.137 104.992 236.618C114.256 249.099 152.341 249.485 158.775 277.92C161.091 287.313 157.745 297.992 150.154 303.653Z" fill="url(#paint2_linear)"/>
<path opacity="0.3" d="M150.154 303.653C148.095 305.197 145.522 306.613 142.691 307.899C146.937 295.547 142.563 288.985 121.333 284.096C97.7867 278.821 98.1726 267.884 99.0733 252.058C99.8453 236.232 83.2473 240.349 75.9133 217.189C71.024 201.621 80.8026 192.228 87.7506 187.725C94.3126 188.883 98.816 193.386 95.342 199.819C87.4933 214.359 95.8566 224.137 105.121 236.618C114.385 249.099 152.47 249.485 158.903 277.92C161.091 287.313 157.745 297.992 150.154 303.653Z" fill="url(#paint3_linear)"/>
<path d="M259.135 138.445C254.245 139.603 247.555 141.147 246.139 138.831C244.595 136.258 249.871 130.854 248.713 129.825C247.812 129.053 244.853 132.655 240.864 132.141C238.805 131.755 236.232 130.211 235.975 128.152C235.46 125.064 240.221 123.391 239.706 120.046C239.449 118.502 238.162 116.829 236.618 116.443C233.273 115.8 231.857 122.362 226.582 123.391C223.237 124.035 219.377 122.491 217.318 119.917C213.844 115.671 216.803 110.267 214.101 108.595C211.914 107.179 209.212 110.267 204.451 111.297C197.117 112.969 188.368 109.238 183.607 103.705C177.045 96.114 176.788 84.148 181.42 76.814C191.842 60.3447 229.67 62.918 239.32 77.7147C242.408 82.4753 246.654 94.8273 248.713 105.764C249.227 108.852 249.871 112.841 253.087 115.414C257.205 118.759 261.193 116.186 266.597 119.403C270.972 121.976 275.089 127.637 273.803 131.755C272.645 135.229 267.755 136.387 259.135 138.445Z" fill="url(#paint4_linear)"/>
<path d="M206.381 157.102C206.51 158.003 193 173.443 190.813 180.777L216.675 188.625C216.675 188.625 232.758 176.917 237.776 176.917L206.381 157.102Z" fill="url(#paint5_linear)"/>
<path d="M206.51 154.915C205.995 154.915 201.106 162.763 200.72 164.693C200.72 164.693 222.079 175.501 226.325 182.192L241.636 175.887C241.636 175.887 216.16 154.657 206.51 154.915Z" fill="url(#paint6_linear)"/>
<path d="M188.754 183.993C188.754 183.993 192.614 174.472 195.059 172.928C197.503 171.384 211.528 176.402 220.406 186.309L216.16 189.783L188.754 183.993Z" fill="url(#paint7_linear)"/>
<path d="M155.558 107.437C155.558 107.437 149.253 105.635 145.393 106.536C141.662 107.437 142.949 112.197 143.721 113.613C144.364 115.028 153.628 111.94 153.628 111.94L155.558 107.437Z" fill="url(#paint8_linear)"/>
<path d="M296.963 156.845C296.705 153.885 296.834 151.569 296.963 149.897C297.22 147.452 297.735 146.423 298.507 146.165C299.15 145.908 299.793 146.165 299.922 146.294C302.109 147.195 302.624 150.926 302.495 153.371C302.238 156.201 300.823 158.26 299.922 159.289C299.021 158.389 297.992 157.617 296.963 156.845Z" fill="url(#paint9_linear)"/>
<path d="M154.786 105.121C153.628 108.08 152.47 110.911 151.441 113.87C155.429 116.829 161.605 120.303 169.454 121.333C177.689 122.362 180.133 119.531 186.567 121.719C193.643 124.035 193.129 128.152 202.65 133.556C210.241 137.802 214.359 137.287 214.745 139.861C215.259 143.206 208.44 145.522 199.305 156.201C195.831 160.19 195.316 161.605 195.702 162.635C196.86 166.109 205.609 162.506 214.745 166.366C226.968 171.513 229.67 185.666 235.589 184.508C236.747 184.251 237.133 183.607 241.121 178.975C244.853 174.729 248.069 171.255 250.257 169.068C253.345 170.483 257.205 172.671 261.193 176.016C269.685 183.35 270.586 189.397 278.692 193.257C281.265 194.415 285.383 196.345 289.114 194.801C291.43 193.772 293.617 191.456 297.477 177.045C299.279 170.226 300.437 164.436 301.209 160.19C299.279 158.775 297.349 157.359 295.419 155.944C293.103 158.517 290.015 162.506 288.085 168.167C286.026 174.215 286.798 177.817 284.611 178.718C282.037 179.876 278.563 175.244 270.2 167.267C258.877 156.459 256.69 156.845 249.485 148.61C242.794 141.019 243.051 138.96 238.677 133.813C236.103 130.854 228.255 122.491 191.327 112.712C182.578 110.396 170.097 107.437 154.786 105.121Z" fill="url(#paint10_linear)"/>
<path opacity="0.3" d="M213.844 156.973C212.815 149.897 231.471 144.235 230.313 138.317C229.67 135.1 224.137 135.1 214.873 131.626C198.018 125.321 199.691 119.145 187.339 115.8C174.086 112.197 167.653 118.245 158.003 112.326C156.201 111.168 154.657 109.881 153.371 108.595C152.727 110.267 152.084 112.069 151.312 113.741C155.301 116.701 161.477 120.175 169.325 121.204C177.56 122.233 180.005 119.403 186.438 121.59C193.515 123.906 193 128.023 202.521 133.427C210.113 137.673 214.23 137.159 214.616 139.732C215.131 143.077 208.311 145.393 199.176 156.073C195.702 160.061 195.187 161.477 195.573 162.506C196.731 165.98 205.481 162.377 214.616 166.237C226.839 171.384 229.541 185.537 235.46 184.379C235.589 184.379 235.717 184.379 235.717 184.251C235.589 179.49 234.431 174.215 231.085 169.84C224.781 161.605 214.616 162.12 213.844 156.973Z" fill="url(#paint11_linear)"/>
<path opacity="0.3" d="M286.669 191.713C281.78 191.585 280.365 185.151 269.428 175.887C265.053 172.156 255.661 164.179 251.029 167.138C250.643 167.395 249.485 168.167 248.841 170.483C249.356 169.969 249.742 169.454 250.257 169.068C253.345 170.483 257.205 172.671 261.193 176.016C269.685 183.35 270.586 189.397 278.692 193.257C281.265 194.415 285.383 196.345 289.114 194.801C290.658 194.158 292.202 192.871 294.389 187.339C291.173 190.813 288.599 191.713 286.669 191.713Z" fill="url(#paint12_linear)"/>
<path d="M257.333 136.129C257.333 136.129 247.941 143.206 241.636 137.545C241.636 137.545 239.449 147.967 252.959 154.915C252.959 154.915 247.941 150.283 259.006 143.206L257.333 136.129Z" fill="url(#paint13_linear)"/>
<path d="M269.299 130.468C269.299 130.468 269.042 140.633 265.053 145.651C264.539 146.294 263.509 146.68 262.737 146.423C260.55 145.779 256.433 143.721 255.532 138.188C255.532 138.188 253.345 135.229 253.731 133.942C253.988 132.655 256.304 133.17 257.076 134.714C257.848 136.387 258.877 133.427 258.491 132.913C258.105 132.398 261.065 126.479 269.299 130.468Z" fill="url(#paint14_linear)"/>
<path d="M190.555 182.835C172.156 189.912 169.84 195.959 169.325 198.275C169.197 198.661 168.811 201.235 168.425 204.323C167.781 210.499 168.039 211.785 167.395 213.844C166.109 217.575 163.407 218.605 160.061 221.435C150.54 229.67 153.499 237.905 144.879 243.952C140.761 246.783 137.416 246.911 134.714 247.683C126.222 249.999 116.057 261.193 108.981 300.179C110.782 302.109 112.455 304.168 114.256 306.098C123.263 285.897 134.328 273.803 142.691 266.597C159.547 251.929 172.799 250.257 189.011 233.659C199.948 222.465 206.124 210.756 209.469 202.907C203.165 196.345 196.86 189.526 190.555 182.835Z" fill="url(#paint15_linear)"/>
<path opacity="0.3" d="M197.375 190.169C184.508 191.971 180.005 196.345 178.332 199.948C175.759 205.609 179.747 209.727 178.718 221.178C178.461 223.365 177.431 234.045 171.513 241.636C162.635 252.83 149.511 248.97 138.831 255.146C131.626 259.263 124.163 268.785 121.719 291.687C128.924 279.85 136.515 271.873 142.563 266.597C159.418 251.929 172.671 250.257 188.883 233.659C199.819 222.465 205.995 210.756 209.341 202.907C205.481 198.661 201.363 194.415 197.375 190.169Z" fill="url(#paint16_linear)"/>
<path d="M187.081 184.251C181.42 187.21 176.016 193.772 176.531 200.849C176.917 207.411 182.321 212.686 187.467 215.131C196.345 219.377 202.135 213.587 220.535 213.458C231.214 213.458 240.864 215.259 240.993 217.447C241.121 219.505 232.501 219.377 227.354 226.196C225.424 228.769 224.781 231.214 223.365 241.25C222.593 246.654 221.693 253.473 220.792 261.322C221.95 262.609 223.108 263.895 224.137 265.053C234.431 253.473 249.871 234.945 261.065 216.289C262.737 213.587 264.925 209.727 263.767 205.867C261.579 198.275 249.485 198.533 225.167 191.585C201.749 185.151 195.445 180.005 187.081 184.251Z" fill="url(#paint17_linear)"/>
<path d="M237.776 206.253L245.11 202.135C221.95 193.772 195.831 190.941 180.133 190.041C178.203 192.485 176.917 195.316 176.531 198.275C207.153 197.761 237.776 206.253 237.776 206.253Z" fill="url(#paint18_linear)"/>
<path d="M232.501 209.598L235.846 207.925C211.785 201.235 186.953 202.007 176.788 202.779C177.689 206.767 180.391 210.241 183.479 212.686C203.036 206.51 232.501 209.598 232.501 209.598Z" fill="url(#paint19_linear)"/>
<path d="M108.08 296.062C108.08 296.062 105.378 297.735 104.349 297.735C103.319 297.735 99.4593 296.963 99.974 300.565C100.489 304.168 103.448 319.351 104.992 323.082C106.536 326.813 107.694 327.843 111.554 327.199C113.227 326.942 110.525 322.825 110.911 320.637C111.297 318.45 116.057 304.554 116.057 304.554C116.057 304.554 112.069 300.051 111.683 298.635C111.425 297.22 110.525 294.389 108.08 296.062Z" fill="url(#paint20_linear)"/>
<path d="M106.536 316.52V304.811C106.536 302.881 106.15 300.951 105.249 299.279L104.477 297.735C104.477 297.735 104.477 297.735 104.349 297.735C103.319 297.735 98.0441 295.547 99.0734 300.951C99.8454 304.554 103.062 320.38 104.606 324.111C106.15 327.843 108.209 328.229 112.069 327.585C112.712 327.457 112.197 326.427 111.811 325.269L109.753 323.597C107.694 321.795 106.536 319.222 106.536 316.52Z" fill="#B2B8C1"/>
<path d="M217.961 257.848C217.961 257.848 215.388 259.392 214.487 259.392C213.458 259.392 209.984 258.749 210.37 262.094C210.756 265.439 213.587 279.721 215.131 283.195C216.546 286.669 217.575 287.699 221.307 287.055C222.851 286.798 220.277 283.067 220.663 280.879C221.049 278.821 225.424 265.697 225.424 265.697C225.424 265.697 221.693 261.451 221.307 260.164C220.921 258.877 220.277 256.304 217.961 257.848Z" fill="url(#paint21_linear)"/>
<path d="M216.546 277.019V266.083C216.546 264.281 216.16 262.48 215.388 260.936L214.616 259.392C214.616 259.392 214.616 259.392 214.487 259.392C213.458 259.392 208.569 257.462 209.598 262.48C210.241 265.825 213.329 280.751 214.873 284.096C216.289 287.57 218.219 287.956 221.821 287.313C222.465 287.184 221.95 286.155 221.564 285.254L219.634 283.71C217.704 282.037 216.546 279.593 216.546 277.019Z" fill="#B2B8C1"/>
<defs>
<linearGradient id="paint0_linear" x1="207.954" y1="73.8318" x2="26.3247" y2="454.986" gradientUnits="userSpaceOnUse">
<stop stop-color="#FFC444"/>
<stop offset="0.9964" stop-color="#F36F56"/>
</linearGradient>
<linearGradient id="paint1_linear" x1="210.833" y1="77.3529" x2="34.0712" y2="448.293" gradientUnits="userSpaceOnUse">
<stop stop-color="#FFC444"/>
<stop offset="0.9964" stop-color="#F36F56"/>
</linearGradient>
<linearGradient id="paint2_linear" x1="133.577" y1="146.314" x2="69.2526" y2="433.684" gradientUnits="userSpaceOnUse">
<stop stop-color="#FF9085"/>
<stop offset="1" stop-color="#FB6FBB"/>
</linearGradient>
<linearGradient id="paint3_linear" x1="138.26" y1="152.248" x2="80.0089" y2="412.485" gradientUnits="userSpaceOnUse">
<stop stop-color="#FF9085"/>
<stop offset="1" stop-color="#FB6FBB"/>
</linearGradient>
<linearGradient id="paint4_linear" x1="179.202" y1="24.5608" x2="270.852" y2="193.845" gradientUnits="userSpaceOnUse">
<stop stop-color="#444B8C"/>
<stop offset="0.9964" stop-color="#26264F"/>
</linearGradient>
<linearGradient id="paint5_linear" x1="201.549" y1="159.998" x2="238.925" y2="215.343" gradientUnits="userSpaceOnUse">
<stop stop-color="#FFC444"/>
<stop offset="0.9964" stop-color="#F36F56"/>
</linearGradient>
<linearGradient id="paint6_linear" x1="220.799" y1="137.474" x2="221.278" y2="172.214" gradientUnits="userSpaceOnUse">
<stop stop-color="#311944"/>
<stop offset="1" stop-color="#A03976"/>
</linearGradient>
<linearGradient id="paint7_linear" x1="188.736" y1="181.262" x2="220.357" y2="181.262" gradientUnits="userSpaceOnUse">
<stop stop-color="#311944"/>
<stop offset="1" stop-color="#A03976"/>
</linearGradient>
<linearGradient id="paint8_linear" x1="149.028" y1="116.881" x2="146.872" y2="201.694" gradientUnits="userSpaceOnUse">
<stop stop-color="#FFC444"/>
<stop offset="0.9964" stop-color="#F36F56"/>
</linearGradient>
<linearGradient id="paint9_linear" x1="300.461" y1="120.672" x2="298.302" y2="205.616" gradientUnits="userSpaceOnUse">
<stop stop-color="#FFC444"/>
<stop offset="0.9964" stop-color="#F36F56"/>
</linearGradient>
<linearGradient id="paint10_linear" x1="151.404" y1="150.146" x2="301.258" y2="150.146" gradientUnits="userSpaceOnUse">
<stop offset="0.00359712" stop-color="#E38DDD"/>
<stop offset="1" stop-color="#9571F6"/>
</linearGradient>
<linearGradient id="paint11_linear" x1="151.404" y1="146.615" x2="235.797" y2="146.615" gradientUnits="userSpaceOnUse">
<stop offset="0.00359712" stop-color="#E38DDD"/>
<stop offset="1" stop-color="#9571F6"/>
</linearGradient>
<linearGradient id="paint12_linear" x1="248.838" y1="180.843" x2="294.323" y2="180.843" gradientUnits="userSpaceOnUse">
<stop offset="0.00359712" stop-color="#E38DDD"/>
<stop offset="1" stop-color="#9571F6"/>
</linearGradient>
<linearGradient id="paint13_linear" x1="241.566" y1="145.531" x2="259.078" y2="145.531" gradientUnits="userSpaceOnUse">
<stop stop-color="#FFC444"/>
<stop offset="0.9964" stop-color="#F36F56"/>
</linearGradient>
<linearGradient id="paint14_linear" x1="270.558" y1="154.866" x2="242.167" y2="84.7868" gradientUnits="userSpaceOnUse">
<stop stop-color="#FFC444"/>
<stop offset="0.9964" stop-color="#F36F56"/>
</linearGradient>
<linearGradient id="paint15_linear" x1="108.983" y1="244.502" x2="209.43" y2="244.502" gradientUnits="userSpaceOnUse">
<stop offset="0.00359712" stop-color="#E38DDD"/>
<stop offset="1" stop-color="#9571F6"/>
</linearGradient>
<linearGradient id="paint16_linear" x1="121.73" y1="240.926" x2="209.43" y2="240.926" gradientUnits="userSpaceOnUse">
<stop offset="0.00359712" stop-color="#E38DDD"/>
<stop offset="1" stop-color="#9571F6"/>
</linearGradient>
<linearGradient id="paint17_linear" x1="176.423" y1="224.023" x2="264.063" y2="224.023" gradientUnits="userSpaceOnUse">
<stop offset="0.00359712" stop-color="#E38DDD"/>
<stop offset="1" stop-color="#9571F6"/>
</linearGradient>
<linearGradient id="paint18_linear" x1="180.633" y1="244.522" x2="209.143" y2="201.397" gradientUnits="userSpaceOnUse">
<stop offset="0.494" stop-color="#EBEFF2"/>
<stop offset="1" stop-color="white"/>
</linearGradient>
<linearGradient id="paint19_linear" x1="180.501" y1="244.435" x2="209.012" y2="201.31" gradientUnits="userSpaceOnUse">
<stop offset="0.494" stop-color="#EBEFF2"/>
<stop offset="1" stop-color="white"/>
</linearGradient>
<linearGradient id="paint20_linear" x1="99.935" y1="311.455" x2="116.106" y2="311.455" gradientUnits="userSpaceOnUse">
<stop stop-color="#311944"/>
<stop offset="1" stop-color="#A03976"/>
</linearGradient>
<linearGradient id="paint21_linear" x1="210.348" y1="272.321" x2="225.51" y2="272.321" gradientUnits="userSpaceOnUse">
<stop stop-color="#311944"/>
<stop offset="1" stop-color="#A03976"/>
</linearGradient>
</defs>
</svg>
